<svg width="52" height="52" viewBox="0 0 52 52" fill="none" xmlns="http://www.w3.org/2000/svg">
<g clip-path="url(#clip0_447_443)">
<g clip-path="url(#clip1_447_443)">
<path d="M15.4772 10.3094L16.8849 11.712V6.78711H12.625V11.712L14.0327 10.3094C14.2322 10.1109 14.4941 10.0107 14.755 10.0107C15.0158 10.0107 15.2777 10.1109 15.4772 10.3094Z" fill="#F50E30"/>
<path d="M26.0716 7.80964C26.0716 7.24597 25.6214 6.78662 25.0485 6.78662H18.9307V14.173C18.9307 14.5924 18.6852 14.9597 18.2965 15.1234C18.1737 15.1745 18.0407 15.196 17.9077 15.196C17.6417 15.196 17.3859 15.0927 17.1813 14.8993L14.7567 12.4748L12.3219 14.8993C12.0354 15.196 11.5955 15.2779 11.2068 15.1234C10.8282 14.9597 10.5827 14.5924 10.5827 14.173V6.78662H4.45472C3.892 6.78662 3.43164 7.24597 3.43164 7.80964V19.2565H11.9434L11.4728 18.7858C11.0738 18.3879 11.0738 17.7434 11.4728 17.3434C11.8717 16.9454 12.5163 16.9454 12.9153 17.3434L15.1353 19.5531C15.2273 19.6452 15.2989 19.7588 15.3603 19.8918C15.4626 20.1373 15.4626 20.4238 15.3603 20.6682C15.2989 20.7911 15.2273 20.9046 15.1353 21.0059L12.9153 23.2167C12.7209 23.4212 12.4549 23.5133 12.1991 23.5133C11.9331 23.5133 11.6671 23.4212 11.4728 23.2167C11.0738 22.8176 11.0738 22.1732 11.4728 21.7731L11.9434 21.3025H3.43164V28.0556H26.0716V7.80964Z" fill="#F50E30"/>
<path d="M47.2591 30.1016H2.47029C1.90763 30.1016 1.44727 30.5609 1.44727 31.1246V39.2669C1.44727 39.8297 1.90763 40.29 2.47029 40.29H5.77472C5.77472 36.4433 8.89503 33.3231 12.7417 33.3231C16.578 33.3231 19.7086 36.4433 19.7086 40.29H32.3022C32.3022 36.4433 35.4225 33.3231 39.2691 33.3231C43.1055 33.3231 46.236 36.4433 46.236 40.29H49.5302C50.1031 40.29 50.5533 39.8297 50.5533 39.2669V33.4049C50.5533 31.5839 49.0801 30.1016 47.2591 30.1016Z" fill="#F50E30"/>
<path d="M48.0163 18.6321C48.0163 18.4071 47.9446 18.1923 47.8117 18.0081L42.8499 11.522C42.6556 11.2663 42.3589 11.1128 42.0417 11.1128H28.9059C28.3432 11.1128 27.8828 11.5732 27.8828 12.1358V28.0544H48.0163V18.6321ZM43.4638 21.4557C43.4638 22.0184 43.0033 22.4788 42.4407 22.4788H33.4584C32.8958 22.4788 32.4353 22.0184 32.4353 21.4557V15.6755C32.4353 15.1027 32.8958 14.6525 33.4584 14.6525H39.7808C40.1082 14.6525 40.4049 14.7958 40.5992 15.0515L43.2489 18.5299C43.3921 18.7038 43.4638 18.9289 43.4638 19.1539V21.4557Z" fill="#F50E30"/>
<path d="M39.2675 35.3672C36.5493 35.3672 34.3457 37.5708 34.3457 40.29C34.3457 43.0083 36.5493 45.2129 39.2675 45.2129C41.9868 45.2129 44.1904 43.0083 44.1904 40.29C44.1904 37.5708 41.9868 35.3672 39.2675 35.3672Z" fill="#F50E30"/>
<path d="M13.8786 45.0652C16.5239 44.4398 18.1615 41.7884 17.5362 39.1431C16.9109 36.4977 14.2594 34.8601 11.6141 35.4854C8.96871 36.1108 7.33114 38.7622 7.95646 41.4075C8.58178 44.0529 11.2332 45.6905 13.8786 45.0652Z" fill="#F50E30"/>
</g>
</g>
<defs>
<clipPath id="clip0_447_443">
<rect width="52" height="52" fill="white"/>
</clipPath>
<clipPath id="clip1_447_443">
<rect width="52" height="52" fill="white"/>
</clipPath>
</defs>
</svg>
