<svg width="52" height="52" viewBox="0 0 52 52" fill="none" xmlns="http://www.w3.org/2000/svg">
<g clip-path="url(#clip0_447_436)">
<g clip-path="url(#clip1_447_436)">
<path d="M22.2114 41.5603C20.9034 41.9756 19.4811 41.9534 18.1747 41.4781C16.8683 41.0025 15.765 40.1055 15.0298 38.9466C13.6583 38.8895 12.3297 38.3821 11.2649 37.4886C11.1304 37.376 11.0011 37.2578 10.8777 37.1348L7.48091 44.2433C7.22582 44.7769 7.29842 45.4093 7.66738 45.8715C8.03633 46.3337 8.63698 46.5443 9.21421 46.4134L16.0228 44.8694L19.0987 51.1368C19.3581 51.6653 19.8957 52.0001 20.4836 52.0001H20.492C21.0835 51.997 21.6211 51.6558 21.8758 51.1222L25.8244 42.8591C24.5088 42.8151 23.2441 42.3561 22.2114 41.5603Z" fill="#F50E30"/>
<path d="M40.8017 37.4886C39.7369 38.3821 38.4078 38.8891 37.0367 38.9462C36.3016 40.1055 35.1979 41.0025 33.8915 41.4777C32.5855 41.9534 31.1632 41.9756 29.8552 41.5603C28.8225 42.3561 27.5577 42.8151 26.2422 42.8591L30.1904 51.1222C30.4455 51.6558 30.9831 51.9966 31.5746 51.9997H31.5825C32.1709 51.9997 32.708 51.6653 32.9675 51.1368L36.0437 44.8694L42.8523 46.413C43.4292 46.5443 44.0298 46.3337 44.3988 45.8715C44.7681 45.4093 44.8403 44.7769 44.5856 44.2433L41.1885 37.1348C41.0651 37.2578 40.9362 37.3756 40.8017 37.4886Z" fill="#F50E30"/>
<path d="M44.9946 18.9393C45.5477 18.2312 45.7754 17.3183 45.6199 16.4352C45.4639 15.5521 44.9379 14.7721 44.1762 14.2957C43.5759 13.9204 43.3077 13.1848 43.5267 12.5112C43.804 11.6566 43.7061 10.7211 43.2574 9.94435C42.8091 9.16756 42.0477 8.61492 41.169 8.42767C40.4767 8.28048 39.9732 7.68063 39.9483 6.97327C39.9165 6.07508 39.5043 5.22965 38.8176 4.65321C38.1305 4.07637 37.2263 3.8177 36.3361 3.94227C35.6354 4.04106 34.957 3.64909 34.6916 2.99291C34.3548 2.15978 33.6784 1.50597 32.8353 1.19931C31.9927 0.892635 31.054 0.958492 30.261 1.38021C29.6357 1.71227 28.8645 1.5762 28.3904 1.05014C27.7894 0.382841 26.9301 0 26.0331 0C25.1361 0 24.2768 0.382841 23.6757 1.05014C23.2016 1.5762 22.4304 1.71227 21.8051 1.38021C21.0121 0.958492 20.0734 0.892635 19.2308 1.19931C18.3877 1.50597 17.7113 2.15978 17.3745 2.99291C17.1091 3.64909 16.4311 4.04106 15.7301 3.94227C14.8402 3.8177 13.9357 4.07637 13.2485 4.65321C12.5614 5.22965 12.1496 6.07508 12.1179 6.97327C12.0929 7.68063 11.5898 8.28048 10.8971 8.42806C10.0184 8.61492 9.25707 9.16756 8.80877 9.94435C8.36007 10.7211 8.26208 11.6566 8.53939 12.5112C8.75799 13.1848 8.4902 13.9204 7.88995 14.2961C7.12824 14.7721 6.60218 15.5521 6.44626 16.4352C6.29075 17.3187 6.51847 18.2312 7.07151 18.9397C7.50711 19.4975 7.50711 20.2807 7.07151 20.8385C6.51847 21.5466 6.29075 22.4595 6.44626 23.3426C6.60218 24.2261 7.12824 25.0057 7.88995 25.4822C8.4902 25.8575 8.75839 26.593 8.53979 27.2666C8.26208 28.1212 8.36047 29.0567 8.80877 29.8335C9.25747 30.6103 10.0184 31.1629 10.8971 31.3501C11.5898 31.4973 12.0929 32.0972 12.1179 32.8049C12.1496 33.7027 12.5618 34.5486 13.2489 35.125C13.9361 35.7014 14.8406 35.9605 15.7301 35.8355C16.4311 35.7375 17.1091 36.1287 17.3745 36.7853C17.7113 37.618 18.3881 38.2718 19.2308 38.5785C20.0738 38.8852 21.0121 38.8193 21.8055 38.398C22.0341 38.2762 22.2828 38.2175 22.5288 38.2175C22.9553 38.2175 23.375 38.394 23.6757 38.7277C24.2771 39.3954 25.1365 39.7778 26.0331 39.7778C26.9301 39.7778 27.7894 39.395 28.3908 38.7277C28.8645 38.2016 29.6357 38.0659 30.261 38.398C31.0544 38.8197 31.9927 38.8852 32.8357 38.5785C33.6784 38.2718 34.3548 37.618 34.6916 36.7853C34.957 36.1287 35.6354 35.7371 36.3365 35.8355C37.2259 35.9601 38.1305 35.7014 38.8176 35.125C39.5047 34.5486 39.9169 33.7027 39.9487 32.8049C39.9732 32.0972 40.4767 31.4977 41.169 31.3501C42.0477 31.1629 42.8091 30.6103 43.2577 29.8335C43.7061 29.0567 43.804 28.1212 43.5267 27.2666C43.3081 26.5934 43.5759 25.8575 44.1762 25.4822C44.9383 25.0057 45.4643 24.2261 45.6203 23.343C45.7758 22.4595 45.5481 21.547 44.995 20.8385C44.559 20.2803 44.559 19.4975 44.9946 18.9393ZM26.0331 33.4076C18.579 33.4076 12.5142 27.3432 12.5142 19.8891C12.5142 12.4346 18.579 6.37024 26.0331 6.37024C33.4872 6.37024 39.5515 12.4346 39.5515 19.8891C39.5515 27.3432 33.4872 33.4076 26.0331 33.4076Z" fill="#F50E30"/>
<path d="M26.0327 9.45605C20.2798 9.45605 15.5996 14.1362 15.5996 19.8892C15.5996 25.6417 20.2798 30.3219 26.0327 30.3219C31.7857 30.3219 36.4655 25.6417 36.4655 19.8892C36.4655 14.1362 31.7853 9.45605 26.0327 9.45605ZM19.5161 17.9754C20.1187 17.3727 21.0955 17.3727 21.6981 17.9754L24.7727 21.05L30.3674 15.4554C30.97 14.8527 31.9467 14.8527 32.5494 15.4554C33.152 16.0576 33.152 17.0347 32.5494 17.637L25.8637 24.323C25.5745 24.6122 25.1818 24.7749 24.7727 24.7749C24.3637 24.7749 23.9713 24.6122 23.6817 24.323L19.5165 20.1574C18.9135 19.5547 18.9135 18.578 19.5161 17.9754Z" fill="#F50E30"/>
</g>
</g>
<defs>
<clipPath id="clip0_447_436">
<rect width="52" height="52" fill="white"/>
</clipPath>
<clipPath id="clip1_447_436">
<rect width="52" height="52" fill="white"/>
</clipPath>
</defs>
</svg>
