<svg width="52" height="52" viewBox="0 0 52 52" fill="none" xmlns="http://www.w3.org/2000/svg">
<path d="M45.8125 19.4999H40.9244L39.6245 16.1199C38.2724 12.6359 34.8925 10.3999 31.1484 10.3999H20.8524C17.1084 10.3999 13.7804 12.6359 12.3764 16.1199L11.0244 19.4999H6.13644C5.61644 19.4999 5.14844 19.9159 5.14844 20.4879C5.14844 20.5399 5.14844 20.6439 5.20044 20.6959L5.66844 22.6719C5.77244 23.0879 6.18844 23.3999 6.60444 23.3999H8.32044C7.17644 24.3879 6.50044 25.7919 6.50044 27.2999V31.1999C6.50044 32.4479 6.96844 33.6439 7.80044 34.6319V38.9999C7.80044 40.4559 8.94444 41.5999 10.4004 41.5999H13.0004C14.4564 41.5999 15.6004 40.4559 15.6004 38.9999V36.3999H36.4004V38.9999C36.4004 40.4559 37.5444 41.5999 39.0005 41.5999H41.6005C43.0565 41.5999 44.2005 40.4559 44.2005 38.9999V34.5799C45.0325 33.6439 45.5005 32.4479 45.5005 31.1479V27.2479C45.5005 25.7399 44.8245 24.3359 43.6805 23.3479H45.2925C45.7605 23.3479 46.1245 23.0359 46.2285 22.6199L46.6965 20.6439C46.8005 20.1239 46.4885 19.6039 45.9685 19.4479C45.9685 19.4999 45.9165 19.4999 45.8125 19.4999ZM17.2124 18.0439C17.7844 16.5359 19.2404 15.5999 20.8524 15.5999H31.1484C32.7604 15.5999 34.2164 16.5879 34.7885 18.0439L36.4004 22.0999H15.6004L17.2124 18.0439ZM13.0004 31.1999C11.6484 31.3039 10.5044 30.2639 10.4004 28.9119C10.4004 28.8079 10.4004 28.7039 10.4004 28.5999C10.2964 27.2479 11.3364 26.1039 12.6884 25.9999H13.0004C14.5604 25.9999 16.9004 28.3399 16.9004 29.8999C16.9004 31.4599 14.5604 31.1999 13.0004 31.1999ZM39.0005 31.1999C37.4404 31.1999 35.1004 31.4599 35.1004 29.8999C35.1004 28.3399 37.4404 25.9999 39.0005 25.9999C40.3525 25.8959 41.4965 26.9359 41.6005 28.2879V28.5999C41.7045 29.9519 40.6645 31.0959 39.3125 31.1999C39.2085 31.1999 39.1045 31.1999 39.0005 31.1999Z" fill="#F50E30"/>
</svg>
